<svg xmlns="http://www.w3.org/2000/svg" xmlns:xlink="http://www.w3.org/1999/xlink" width="79" zoomAndPan="magnify" viewBox="0 0 59.25 44.999999" height="60" preserveAspectRatio="xMidYMid meet" version="1.0"><defs><clipPath id="1dc9424d4c"><path d="M 17 23 L 41 23 L 41 44.679688 L 17 44.679688 Z M 17 23 " clip-rule="nonzero"/></clipPath><clipPath id="c9a3652c5e"><path d="M 36 17 L 58.507812 17 L 58.507812 39 L 36 39 Z M 36 17 " clip-rule="nonzero"/></clipPath><clipPath id="d07ce03a73"><path d="M 39 0.984375 L 54 0.984375 L 54 16 L 39 16 Z M 39 0.984375 " clip-rule="nonzero"/></clipPath><clipPath id="0a50446441"><path d="M 4 0.984375 L 19 0.984375 L 19 16 L 4 16 Z M 4 0.984375 " clip-rule="nonzero"/></clipPath></defs><g clip-path="url(#1dc9424d4c)"><path fill="#ec3237" d="M 32.296875 23.582031 L 26.210938 23.582031 C 21.460938 23.582031 17.609375 27.429688 17.609375 32.179688 L 17.609375 41.976562 C 25.125 44.714844 33.375 44.714844 40.886719 41.976562 L 40.886719 32.179688 C 40.898438 27.429688 37.046875 23.582031 32.296875 23.582031 Z M 32.296875 23.582031 " fill-opacity="1" fill-rule="nonzero"/></g><path fill="#ec3237" d="M 36.3125 13.703125 C 36.3125 14.167969 36.265625 14.625 36.175781 15.082031 C 36.085938 15.535156 35.949219 15.976562 35.773438 16.402344 C 35.597656 16.832031 35.378906 17.238281 35.121094 17.625 C 34.863281 18.007812 34.570312 18.367188 34.246094 18.691406 C 33.917969 19.019531 33.558594 19.3125 33.175781 19.570312 C 32.789062 19.828125 32.382812 20.046875 31.953125 20.222656 C 31.527344 20.398438 31.085938 20.535156 30.632812 20.625 C 30.175781 20.714844 29.71875 20.761719 29.253906 20.761719 C 28.792969 20.761719 28.332031 20.714844 27.878906 20.625 C 27.421875 20.535156 26.984375 20.398438 26.554688 20.222656 C 26.125 20.046875 25.71875 19.828125 25.335938 19.570312 C 24.949219 19.3125 24.59375 19.019531 24.265625 18.691406 C 23.9375 18.367188 23.644531 18.007812 23.386719 17.625 C 23.128906 17.238281 22.914062 16.832031 22.734375 16.402344 C 22.558594 15.976562 22.425781 15.535156 22.335938 15.082031 C 22.242188 14.625 22.199219 14.167969 22.199219 13.703125 C 22.199219 13.242188 22.242188 12.78125 22.335938 12.328125 C 22.425781 11.871094 22.558594 11.429688 22.734375 11.003906 C 22.914062 10.574219 23.128906 10.167969 23.386719 9.785156 C 23.644531 9.398438 23.9375 9.042969 24.265625 8.714844 C 24.59375 8.386719 24.949219 8.09375 25.335938 7.835938 C 25.71875 7.578125 26.125 7.363281 26.554688 7.183594 C 26.984375 7.007812 27.421875 6.875 27.878906 6.78125 C 28.332031 6.691406 28.792969 6.648438 29.253906 6.648438 C 29.71875 6.648438 30.175781 6.691406 30.632812 6.78125 C 31.085938 6.875 31.527344 7.007812 31.953125 7.183594 C 32.382812 7.363281 32.789062 7.578125 33.175781 7.835938 C 33.558594 8.09375 33.917969 8.386719 34.246094 8.714844 C 34.570312 9.042969 34.863281 9.398438 35.121094 9.785156 C 35.378906 10.167969 35.597656 10.574219 35.773438 11.003906 C 35.949219 11.429688 36.085938 11.871094 36.175781 12.328125 C 36.265625 12.78125 36.3125 13.242188 36.3125 13.703125 Z M 36.3125 13.703125 " fill-opacity="1" fill-rule="nonzero"/><g clip-path="url(#c9a3652c5e)"><path fill="#ec3237" d="M 49.910156 17.917969 L 43.824219 17.917969 C 40.476562 17.917969 37.574219 19.835938 36.160156 22.632812 C 39.925781 24.164062 42.59375 27.863281 42.59375 32.167969 L 42.59375 38.089844 C 47.929688 38.769531 53.394531 38.171875 58.507812 36.3125 L 58.507812 26.515625 C 58.507812 21.765625 54.660156 17.917969 49.910156 17.917969 Z M 49.910156 17.917969 " fill-opacity="1" fill-rule="nonzero"/></g><g clip-path="url(#d07ce03a73)"><path fill="#ec3237" d="M 53.921875 8.039062 C 53.921875 8.503906 53.878906 8.960938 53.785156 9.417969 C 53.695312 9.871094 53.5625 10.3125 53.386719 10.742188 C 53.207031 11.167969 52.992188 11.574219 52.734375 11.960938 C 52.476562 12.34375 52.183594 12.703125 51.855469 13.03125 C 51.527344 13.355469 51.171875 13.648438 50.785156 13.90625 C 50.402344 14.164062 49.996094 14.382812 49.566406 14.558594 C 49.136719 14.738281 48.695312 14.871094 48.242188 14.960938 C 47.789062 15.050781 47.328125 15.097656 46.867188 15.097656 C 46.402344 15.097656 45.945312 15.050781 45.488281 14.960938 C 45.035156 14.871094 44.59375 14.738281 44.164062 14.558594 C 43.738281 14.382812 43.332031 14.164062 42.945312 13.90625 C 42.558594 13.648438 42.203125 13.355469 41.875 13.03125 C 41.550781 12.703125 41.257812 12.34375 41 11.960938 C 40.742188 11.574219 40.523438 11.167969 40.347656 10.742188 C 40.167969 10.3125 40.035156 9.871094 39.945312 9.417969 C 39.855469 8.960938 39.808594 8.503906 39.808594 8.039062 C 39.808594 7.578125 39.855469 7.117188 39.945312 6.664062 C 40.035156 6.210938 40.167969 5.769531 40.347656 5.339844 C 40.523438 4.910156 40.742188 4.503906 41 4.121094 C 41.257812 3.734375 41.550781 3.378906 41.875 3.050781 C 42.203125 2.722656 42.558594 2.429688 42.945312 2.171875 C 43.332031 1.914062 43.738281 1.699219 44.164062 1.519531 C 44.59375 1.34375 45.035156 1.210938 45.488281 1.121094 C 45.945312 1.027344 46.402344 0.984375 46.867188 0.984375 C 47.328125 0.984375 47.789062 1.027344 48.242188 1.121094 C 48.695312 1.210938 49.136719 1.34375 49.566406 1.519531 C 49.996094 1.699219 50.402344 1.914062 50.785156 2.171875 C 51.171875 2.429688 51.527344 2.722656 51.855469 3.050781 C 52.183594 3.378906 52.476562 3.734375 52.734375 4.121094 C 52.992188 4.503906 53.207031 4.910156 53.386719 5.339844 C 53.5625 5.769531 53.695312 6.210938 53.785156 6.664062 C 53.878906 7.117188 53.921875 7.578125 53.921875 8.039062 Z M 53.921875 8.039062 " fill-opacity="1" fill-rule="nonzero"/></g><path fill="#ec3237" d="M 22.351562 22.644531 C 20.933594 19.847656 18.03125 17.929688 14.6875 17.929688 L 8.601562 17.929688 C 3.851562 17.917969 0 21.765625 0 26.515625 L 0 36.3125 C 5.125 38.183594 10.578125 38.769531 15.914062 38.089844 L 15.914062 32.167969 C 15.914062 27.863281 18.582031 24.164062 22.351562 22.644531 Z M 22.351562 22.644531 " fill-opacity="1" fill-rule="nonzero"/><g clip-path="url(#0a50446441)"><path fill="#ec3237" d="M 18.699219 8.039062 C 18.699219 8.503906 18.65625 8.960938 18.5625 9.417969 C 18.472656 9.871094 18.339844 10.3125 18.164062 10.742188 C 17.984375 11.167969 17.769531 11.574219 17.511719 11.960938 C 17.253906 12.34375 16.960938 12.703125 16.632812 13.03125 C 16.304688 13.355469 15.949219 13.648438 15.5625 13.90625 C 15.179688 14.164062 14.773438 14.382812 14.34375 14.558594 C 13.914062 14.738281 13.472656 14.871094 13.019531 14.960938 C 12.566406 15.050781 12.105469 15.097656 11.644531 15.097656 C 11.179688 15.097656 10.722656 15.050781 10.265625 14.960938 C 9.8125 14.871094 9.371094 14.738281 8.941406 14.558594 C 8.515625 14.382812 8.109375 14.164062 7.722656 13.90625 C 7.339844 13.648438 6.980469 13.355469 6.652344 13.03125 C 6.328125 12.703125 6.035156 12.34375 5.777344 11.960938 C 5.519531 11.574219 5.300781 11.167969 5.125 10.742188 C 4.945312 10.3125 4.8125 9.871094 4.722656 9.417969 C 4.632812 8.960938 4.585938 8.503906 4.585938 8.039062 C 4.585938 7.578125 4.632812 7.117188 4.722656 6.664062 C 4.8125 6.210938 4.945312 5.769531 5.125 5.339844 C 5.300781 4.910156 5.519531 4.503906 5.777344 4.121094 C 6.035156 3.734375 6.328125 3.378906 6.652344 3.050781 C 6.980469 2.722656 7.339844 2.429688 7.722656 2.171875 C 8.109375 1.914062 8.515625 1.699219 8.941406 1.519531 C 9.371094 1.34375 9.8125 1.210938 10.265625 1.121094 C 10.722656 1.027344 11.179688 0.984375 11.644531 0.984375 C 12.105469 0.984375 12.566406 1.027344 13.019531 1.121094 C 13.472656 1.210938 13.914062 1.34375 14.34375 1.519531 C 14.773438 1.699219 15.179688 1.914062 15.5625 2.171875 C 15.949219 2.429688 16.304688 2.722656 16.632812 3.050781 C 16.960938 3.378906 17.253906 3.734375 17.511719 4.121094 C 17.769531 4.503906 17.984375 4.910156 18.164062 5.339844 C 18.339844 5.769531 18.472656 6.210938 18.5625 6.664062 C 18.65625 7.117188 18.699219 7.578125 18.699219 8.039062 Z M 18.699219 8.039062 " fill-opacity="1" fill-rule="nonzero"/></g></svg>