<svg xmlns="http://www.w3.org/2000/svg" xmlns:xlink="http://www.w3.org/1999/xlink" width="79" zoomAndPan="magnify" viewBox="0 0 59.25 44.999999" height="60" preserveAspectRatio="xMidYMid meet" version="1.0"><defs><clipPath id="9dcf83f9e3"><path d="M 2.011719 0.738281 L 56 0.738281 L 56 44.4375 L 2.011719 44.4375 Z M 2.011719 0.738281 " clip-rule="nonzero"/></clipPath></defs><g clip-path="url(#9dcf83f9e3)"><path fill="#ec3237" d="M 55.097656 9.269531 C 54.28125 8.375 52.515625 7.652344 48.738281 9.285156 C 46.082031 10.433594 43.0625 12.488281 40.234375 15.074219 C 39.328125 15.902344 38.476562 16.753906 37.6875 17.617188 L 37.6875 6.292969 C 37.6875 3.230469 35.195312 0.738281 32.132812 0.738281 L 7.070312 0.738281 C 4.289062 0.738281 2.027344 3 2.027344 5.777344 C 2.027344 8.558594 4.289062 10.820312 7.070312 10.820312 C 8.289062 10.820312 9.410156 10.382812 10.285156 9.65625 L 10.285156 39.203125 C 10.285156 41.984375 12.542969 44.246094 15.324219 44.246094 L 40.902344 44.246094 C 43.679688 44.246094 45.941406 41.984375 45.941406 39.203125 L 45.941406 38.289062 L 37.6875 38.289062 L 37.6875 29.988281 C 38.230469 29.835938 38.828125 29.625 39.488281 29.339844 C 42.140625 28.191406 45.160156 26.136719 47.988281 23.550781 C 50.816406 20.964844 53.132812 18.144531 54.511719 15.601562 C 56.476562 11.984375 55.914062 10.160156 55.097656 9.269531 Z M 7.070312 8.992188 C 5.296875 8.992188 3.855469 7.550781 3.855469 5.777344 C 3.855469 4.007812 5.296875 2.5625 7.070312 2.5625 C 8.839844 2.5625 10.285156 4.007812 10.285156 5.777344 C 10.285156 7.550781 8.84375 8.992188 7.070312 8.992188 Z M 40.902344 42.417969 L 19.203125 42.417969 C 19.746094 41.769531 20.125 40.980469 20.28125 40.117188 L 43.984375 40.117188 C 43.589844 41.445312 42.359375 42.417969 40.902344 42.417969 Z M 35.859375 38.292969 L 18.539062 38.292969 L 18.539062 39.207031 C 18.539062 40.976562 17.097656 42.417969 15.324219 42.417969 C 13.550781 42.417969 12.109375 40.976562 12.109375 39.207031 L 12.109375 5.777344 C 12.109375 4.558594 11.675781 3.4375 10.949219 2.5625 L 32.132812 2.5625 C 34.1875 2.5625 35.863281 4.238281 35.863281 6.292969 L 35.863281 19.78125 C 35.007812 20.882812 34.28125 21.976562 33.714844 23.023438 C 32.242188 25.734375 32.1875 27.441406 32.597656 28.5 C 30.804688 30.460938 29.738281 31.753906 29.707031 31.792969 C 29.386719 32.183594 29.445312 32.757812 29.835938 33.078125 C 30.003906 33.21875 30.210938 33.285156 30.414062 33.285156 C 30.679688 33.285156 30.941406 33.167969 31.121094 32.949219 C 31.148438 32.914062 32.132812 31.71875 33.800781 29.890625 C 34.246094 30.140625 34.835938 30.3125 35.617188 30.3125 C 35.695312 30.3125 35.777344 30.308594 35.859375 30.308594 Z M 52.90625 14.730469 C 51.621094 17.097656 49.4375 19.75 46.753906 22.203125 C 44.074219 24.652344 41.234375 26.59375 38.761719 27.660156 C 37.03125 28.410156 35.847656 28.574219 35.136719 28.441406 C 38.542969 24.820312 43.765625 19.714844 49.40625 15.796875 C 49.820312 15.511719 49.925781 14.941406 49.636719 14.527344 C 49.347656 14.113281 48.78125 14.011719 48.367188 14.296875 C 42.839844 18.132812 37.71875 23.078125 34.246094 26.730469 C 34.347656 26.03125 34.667969 25.089844 35.316406 23.894531 C 36.601562 21.527344 38.789062 18.871094 41.46875 16.421875 C 44.152344 13.96875 46.988281 12.03125 49.460938 10.960938 C 50.84375 10.367188 51.875 10.140625 52.597656 10.140625 C 53.175781 10.140625 53.554688 10.285156 53.75 10.5 C 54.191406 10.980469 54.199219 12.347656 52.90625 14.730469 Z M 52.90625 14.730469 " fill-opacity="1" fill-rule="nonzero"/></g><path fill="#ec3237" d="M 17.21875 13.121094 L 31.292969 13.121094 C 31.796875 13.121094 32.207031 12.710938 32.207031 12.207031 C 32.207031 11.699219 31.796875 11.292969 31.292969 11.292969 L 17.21875 11.292969 C 16.714844 11.292969 16.304688 11.699219 16.304688 12.207031 C 16.304688 12.710938 16.714844 13.121094 17.21875 13.121094 Z M 17.21875 13.121094 " fill-opacity="1" fill-rule="nonzero"/><path fill="#ec3237" d="M 17.21875 19.480469 L 31.292969 19.480469 C 31.796875 19.480469 32.207031 19.070312 32.207031 18.566406 C 32.207031 18.0625 31.796875 17.652344 31.292969 17.652344 L 17.21875 17.652344 C 16.714844 17.652344 16.304688 18.0625 16.304688 18.566406 C 16.304688 19.070312 16.714844 19.480469 17.21875 19.480469 Z M 17.21875 19.480469 " fill-opacity="1" fill-rule="nonzero"/><path fill="#ec3237" d="M 17.21875 25.839844 L 31.292969 25.839844 C 31.796875 25.839844 32.207031 25.433594 32.207031 24.925781 C 32.207031 24.421875 31.796875 24.015625 31.292969 24.015625 L 17.21875 24.015625 C 16.714844 24.015625 16.304688 24.421875 16.304688 24.925781 C 16.304688 25.429688 16.714844 25.839844 17.21875 25.839844 Z M 17.21875 25.839844 " fill-opacity="1" fill-rule="nonzero"/><path fill="#ec3237" d="M 24.289062 30.375 L 17.21875 30.375 C 16.714844 30.375 16.304688 30.78125 16.304688 31.289062 C 16.304688 31.792969 16.714844 32.203125 17.21875 32.203125 L 24.289062 32.203125 C 24.792969 32.203125 25.203125 31.792969 25.203125 31.289062 C 25.203125 30.78125 24.792969 30.375 24.289062 30.375 Z M 24.289062 30.375 " fill-opacity="1" fill-rule="nonzero"/></svg>