<svg xmlns="http://www.w3.org/2000/svg" xmlns:xlink="http://www.w3.org/1999/xlink" width="78" zoomAndPan="magnify" viewBox="0 0 58.5 44.999999" height="60" preserveAspectRatio="xMidYMid meet" version="1.0"><defs><clipPath id="0a7ed6b233"><path d="M 23 39 L 28 39 L 28 44.808594 L 23 44.808594 Z M 23 39 " clip-rule="nonzero"/></clipPath><clipPath id="e0fda2a83e"><path d="M 31 34 L 36 34 L 36 44.808594 L 31 44.808594 Z M 31 34 " clip-rule="nonzero"/></clipPath><clipPath id="c03bc72817"><path d="M 39 27 L 44 27 L 44 44.808594 L 39 44.808594 Z M 39 27 " clip-rule="nonzero"/></clipPath><clipPath id="3e46363455"><path d="M 9.203125 0.191406 L 37 0.191406 L 37 33 L 9.203125 33 Z M 9.203125 0.191406 " clip-rule="nonzero"/></clipPath><clipPath id="210c6af8ad"><path d="M 16 5 L 48.617188 5 L 48.617188 42 L 16 42 Z M 16 5 " clip-rule="nonzero"/></clipPath></defs><g clip-path="url(#0a7ed6b233)"><path fill="#ec3237" d="M 26.691406 44.808594 C 26.972656 44.808594 27.199219 44.582031 27.199219 44.304688 L 27.199219 39.957031 C 27.199219 39.675781 26.972656 39.449219 26.691406 39.449219 L 23.59375 39.449219 C 23.316406 39.449219 23.089844 39.675781 23.089844 39.957031 L 23.089844 44.304688 C 23.089844 44.582031 23.316406 44.808594 23.59375 44.808594 Z M 24.101562 40.460938 L 26.1875 40.460938 L 26.1875 43.796875 L 24.101562 43.796875 Z M 24.101562 40.460938 " fill-opacity="1" fill-rule="nonzero"/></g><g clip-path="url(#e0fda2a83e)"><path fill="#ec3237" d="M 34.742188 44.808594 C 35.019531 44.808594 35.246094 44.582031 35.246094 44.304688 L 35.246094 35.445312 C 35.246094 35.167969 35.019531 34.941406 34.742188 34.941406 L 31.644531 34.941406 C 31.363281 34.941406 31.136719 35.167969 31.136719 35.445312 L 31.136719 44.304688 C 31.136719 44.582031 31.363281 44.808594 31.644531 44.808594 Z M 32.148438 35.953125 L 34.238281 35.953125 L 34.238281 43.796875 L 32.148438 43.796875 Z M 32.148438 35.953125 " fill-opacity="1" fill-rule="nonzero"/></g><g clip-path="url(#c03bc72817)"><path fill="#ec3237" d="M 42.789062 44.808594 C 43.070312 44.808594 43.296875 44.582031 43.296875 44.304688 L 43.296875 28.441406 C 43.296875 28.164062 43.070312 27.9375 42.789062 27.9375 L 39.691406 27.9375 C 39.414062 27.9375 39.183594 28.164062 39.183594 28.441406 L 39.183594 44.304688 C 39.183594 44.582031 39.414062 44.808594 39.691406 44.808594 Z M 40.199219 28.949219 L 42.285156 28.949219 L 42.285156 43.796875 L 40.199219 43.796875 Z M 40.199219 28.949219 " fill-opacity="1" fill-rule="nonzero"/></g><path fill="#ec3237" d="M 14.8125 31.625 C 14.898438 31.683594 14.996094 31.710938 15.09375 31.710938 C 15.226562 31.710938 15.359375 31.660156 15.457031 31.558594 C 16.1875 30.8125 17.164062 30.386719 18.207031 30.355469 C 21.1875 30.265625 23.542969 27.855469 23.570312 24.875 C 23.574219 24.597656 23.347656 24.367188 23.070312 24.367188 C 22.757812 24.371094 22.5625 24.585938 22.558594 24.867188 C 22.535156 27.304688 20.609375 29.269531 18.175781 29.34375 C 17.382812 29.367188 16.625 29.574219 15.941406 29.941406 C 16.023438 29.171875 15.921875 28.390625 15.644531 27.648438 C 14.785156 25.367188 15.871094 22.839844 18.113281 21.890625 C 18.371094 21.78125 18.492188 21.484375 18.382812 21.226562 C 18.273438 20.96875 17.976562 20.851562 17.71875 20.957031 C 14.972656 22.121094 13.648438 25.214844 14.699219 28.007812 C 15.066406 28.984375 15.042969 30.050781 14.628906 31.007812 C 14.535156 31.226562 14.609375 31.488281 14.8125 31.625 Z M 14.8125 31.625 " fill-opacity="1" fill-rule="nonzero"/><g clip-path="url(#3e46363455)"><path fill="#ec3237" d="M 10.273438 20.605469 C 12.117188 18.5 15.179688 18.042969 17.546875 19.503906 L 24.964844 24.472656 C 27.234375 26.113281 27.976562 29.121094 26.730469 31.628906 C 26.621094 31.84375 26.683594 32.109375 26.878906 32.253906 C 26.96875 32.324219 27.074219 32.359375 27.183594 32.359375 C 27.304688 32.359375 27.425781 32.3125 27.523438 32.226562 C 30.140625 29.847656 31.953125 26.769531 32.761719 23.324219 C 33.15625 21.628906 32.839844 19.867188 31.902344 18.414062 C 34.191406 15.375 35.828125 11.863281 36.675781 8.066406 C 37.230469 5.574219 36.960938 2.921875 35.910156 0.59375 C 35.832031 0.421875 35.660156 0.304688 35.464844 0.296875 C 32.914062 0.207031 30.359375 0.972656 28.269531 2.433594 C 25.078125 4.664062 22.453125 7.515625 20.515625 10.789062 C 18.816406 10.472656 17.0625 10.855469 15.648438 11.867188 C 12.773438 13.925781 10.617188 16.769531 9.410156 20.097656 C 9.328125 20.328125 9.421875 20.582031 9.628906 20.707031 C 9.84375 20.832031 10.113281 20.792969 10.273438 20.605469 Z M 31.773438 23.09375 C 31.171875 25.664062 29.976562 28.015625 28.277344 30 C 28.578125 27.824219 27.78125 25.605469 26.085938 24.09375 C 28.023438 22.699219 29.753906 21.078125 31.238281 19.261719 C 31.886719 20.421875 32.082031 21.78125 31.773438 23.09375 Z M 28.851562 3.265625 C 30.667969 1.996094 32.863281 1.304688 35.082031 1.304688 C 35.09375 1.304688 35.105469 1.304688 35.117188 1.304688 C 35.972656 3.359375 36.175781 5.671875 35.691406 7.84375 C 34.273438 14.195312 30.5625 19.714844 25.242188 23.445312 L 18.40625 18.863281 C 19.832031 12.527344 23.519531 6.996094 28.851562 3.265625 Z M 16.242188 12.691406 C 17.335938 11.910156 18.671875 11.574219 19.988281 11.726562 C 18.875 13.792969 18.035156 16.007812 17.484375 18.332031 C 15.445312 17.339844 13.089844 17.441406 11.1875 18.554688 C 12.375 16.230469 14.097656 14.226562 16.242188 12.691406 Z M 16.242188 12.691406 " fill-opacity="1" fill-rule="nonzero"/></g><g clip-path="url(#210c6af8ad)"><path fill="#ec3237" d="M 46.679688 6.179688 C 46.644531 6.011719 46.523438 5.875 46.363281 5.816406 C 46.199219 5.753906 46.019531 5.785156 45.882812 5.886719 L 38.574219 11.453125 C 38.429688 11.566406 38.355469 11.75 38.382812 11.933594 C 38.410156 12.117188 38.535156 12.269531 38.710938 12.332031 L 42.132812 13.582031 C 37.6875 25.351562 28.375 34.523438 16.523438 38.796875 C 16.261719 38.890625 16.125 39.179688 16.21875 39.445312 L 16.765625 40.960938 C 16.8125 41.085938 16.90625 41.1875 17.027344 41.242188 C 17.09375 41.277344 17.167969 41.292969 17.242188 41.292969 C 17.300781 41.292969 17.359375 41.285156 17.414062 41.265625 C 30 36.726562 39.882812 26.980469 44.59375 14.480469 L 48.023438 15.726562 C 48.085938 15.75 48.144531 15.757812 48.207031 15.757812 C 48.449219 15.777344 48.722656 15.535156 48.722656 15.253906 C 48.722656 15.164062 48.703125 15.082031 48.660156 15.011719 Z M 44.46875 13.355469 C 44.207031 13.257812 43.917969 13.394531 43.820312 13.65625 C 39.339844 25.945312 29.777344 35.570312 17.542969 40.136719 L 17.339844 39.574219 C 29.40625 35.066406 38.839844 25.574219 43.257812 13.453125 C 43.355469 13.191406 43.21875 12.898438 42.957031 12.804688 L 39.925781 11.699219 L 45.867188 7.167969 L 47.5 14.457031 Z M 44.46875 13.355469 " fill-opacity="1" fill-rule="nonzero"/></g></svg>