<svg xmlns="http://www.w3.org/2000/svg" xmlns:xlink="http://www.w3.org/1999/xlink" width="78" zoomAndPan="magnify" viewBox="0 0 58.5 44.999999" height="60" preserveAspectRatio="xMidYMid meet" version="1.0"><defs><clipPath id="c5e50b5cf8"><path d="M 18 24 L 55.625 24 L 55.625 44.808594 L 18 44.808594 Z M 18 24 " clip-rule="nonzero"/></clipPath><clipPath id="077f835c26"><path d="M 2.082031 12 L 40 12 L 40 34 L 2.082031 34 Z M 2.082031 12 " clip-rule="nonzero"/></clipPath><clipPath id="e9df0110a6"><path d="M 18 0.191406 L 55.625 0.191406 L 55.625 21 L 18 21 Z M 18 0.191406 " clip-rule="nonzero"/></clipPath></defs><path fill="#ec3237" d="M 49.109375 8.210938 C 49.234375 7.960938 49.234375 7.625 49.066406 7.371094 L 47.132812 4.386719 C 46.628906 3.421875 45.703125 2.789062 44.652344 2.789062 L 35.535156 2.789062 C 34.820312 2.789062 34.230469 3.042969 33.683594 3.503906 L 32.886719 4.21875 L 29.273438 7.203125 C 28.976562 7.414062 28.894531 7.792969 29.019531 8.128906 C 29.144531 8.464844 29.441406 8.675781 29.820312 8.675781 L 48.308594 8.675781 C 48.644531 8.632812 48.941406 8.464844 49.109375 8.210938 Z M 34.019531 5.4375 L 34.863281 4.722656 C 35.070312 4.515625 35.28125 4.429688 35.574219 4.429688 L 38.894531 4.429688 L 38.894531 6.949219 L 32.214844 6.949219 Z M 40.535156 6.949219 L 40.535156 4.429688 L 44.609375 4.429688 C 45.03125 4.429688 45.410156 4.683594 45.621094 5.101562 C 45.621094 5.144531 45.660156 5.1875 45.660156 5.1875 L 46.796875 6.910156 L 40.535156 6.910156 Z M 40.535156 6.949219 " fill-opacity="1" fill-rule="nonzero"/><path fill="#ec3237" d="M 22.253906 11.152344 L 23.976562 11.152344 C 23.933594 10.691406 23.558594 10.3125 23.136719 10.3125 C 22.632812 10.3125 22.296875 10.691406 22.253906 11.152344 Z M 22.253906 11.152344 " fill-opacity="1" fill-rule="nonzero"/><path fill="#ec3237" d="M 32.296875 20.820312 C 32.425781 20.566406 32.425781 20.230469 32.257812 19.980469 L 30.28125 16.953125 C 29.820312 15.984375 28.851562 15.355469 27.800781 15.355469 L 18.722656 15.355469 C 18.011719 15.355469 17.421875 15.609375 16.875 16.070312 L 16.078125 16.785156 L 12.460938 19.769531 C 12.167969 19.980469 12.085938 20.355469 12.210938 20.691406 C 12.335938 21.027344 12.632812 21.238281 13.007812 21.238281 L 31.5 21.238281 C 31.835938 21.238281 32.128906 21.070312 32.296875 20.820312 Z M 17.210938 18.046875 L 18.050781 17.332031 C 18.261719 17.121094 18.472656 17.035156 18.765625 17.035156 L 22.085938 17.035156 L 22.085938 19.558594 L 15.40625 19.558594 Z M 23.726562 19.558594 L 23.726562 17.035156 L 27.800781 17.035156 C 28.222656 17.035156 28.601562 17.289062 28.808594 17.710938 C 28.808594 17.75 28.851562 17.792969 28.851562 17.792969 L 29.988281 19.515625 L 23.726562 19.515625 Z M 23.726562 19.558594 " fill-opacity="1" fill-rule="nonzero"/><path fill="#ec3237" d="M 7.167969 23.84375 C 7.167969 24.101562 7.082031 24.316406 6.910156 24.5 C 6.738281 24.679688 6.527344 24.769531 6.285156 24.769531 C 6.042969 24.769531 5.832031 24.679688 5.660156 24.5 C 5.488281 24.316406 5.402344 24.101562 5.402344 23.84375 C 5.402344 23.589844 5.488281 23.371094 5.660156 23.191406 C 5.832031 23.011719 6.042969 22.921875 6.285156 22.921875 C 6.527344 22.921875 6.738281 23.011719 6.910156 23.191406 C 7.082031 23.371094 7.167969 23.589844 7.167969 23.84375 Z M 7.167969 23.84375 " fill-opacity="1" fill-rule="nonzero"/><path fill="#ec3237" d="M 47.089844 28.71875 C 46.585938 27.753906 45.660156 27.121094 44.609375 27.121094 L 35.535156 27.121094 C 34.820312 27.121094 34.230469 27.375 33.683594 27.835938 L 32.886719 28.550781 L 29.273438 31.535156 C 28.976562 31.746094 28.894531 32.125 29.019531 32.460938 C 29.144531 32.796875 29.441406 33.007812 29.820312 33.007812 L 48.308594 33.007812 C 48.605469 33.007812 48.898438 32.839844 49.066406 32.585938 C 49.191406 32.332031 49.191406 31.996094 49.023438 31.746094 Z M 34.019531 29.8125 L 34.863281 29.097656 C 35.070312 28.886719 35.28125 28.804688 35.574219 28.804688 L 38.894531 28.804688 L 38.894531 31.324219 L 32.214844 31.324219 Z M 40.535156 31.324219 L 40.535156 28.804688 L 44.609375 28.804688 C 45.03125 28.804688 45.410156 29.054688 45.621094 29.476562 C 45.621094 29.519531 45.660156 29.558594 45.660156 29.558594 L 46.796875 31.28125 L 40.535156 31.28125 Z M 40.535156 31.324219 " fill-opacity="1" fill-rule="nonzero"/><path fill="#ec3237" d="M 23.976562 35.613281 C 23.976562 35.867188 23.890625 36.085938 23.71875 36.265625 C 23.546875 36.445312 23.339844 36.535156 23.09375 36.535156 C 22.851562 36.535156 22.644531 36.445312 22.472656 36.265625 C 22.296875 36.085938 22.210938 35.867188 22.210938 35.613281 C 22.210938 35.355469 22.296875 35.136719 22.472656 34.957031 C 22.644531 34.777344 22.851562 34.6875 23.09375 34.6875 C 23.339844 34.6875 23.546875 34.777344 23.71875 34.957031 C 23.890625 35.136719 23.976562 35.355469 23.976562 35.613281 Z M 23.976562 35.613281 " fill-opacity="1" fill-rule="nonzero"/><g clip-path="url(#c5e50b5cf8)"><path fill="#ec3237" d="M 55.914062 36.703125 L 55.914062 35.023438 C 55.914062 33.929688 55.035156 33.046875 53.941406 33.046875 L 53.101562 33.046875 L 49.90625 28.046875 C 48.773438 25.902344 46.542969 24.601562 44.148438 24.601562 L 35.746094 24.601562 C 34.019531 24.601562 32.425781 25.273438 31.207031 26.449219 L 31.121094 26.535156 C 30.996094 26.660156 30.871094 26.785156 30.742188 26.871094 L 24.984375 31.789062 C 24.945312 31.828125 24.945312 31.828125 24.902344 31.871094 L 21.496094 31.871094 C 20.824219 31.871094 20.152344 32.164062 19.691406 32.710938 C 19.144531 33.300781 18.890625 34.140625 18.976562 35.023438 L 18.976562 37.839844 C 18.976562 39.269531 20.152344 40.527344 21.539062 40.527344 L 25.828125 40.527344 C 25.828125 40.570312 25.828125 40.613281 25.828125 40.65625 C 25.828125 42.921875 27.589844 44.773438 29.777344 44.773438 C 31.960938 44.773438 33.726562 42.921875 33.726562 40.65625 C 33.726562 40.613281 33.726562 40.570312 33.726562 40.527344 L 42.59375 40.527344 C 42.59375 40.570312 42.59375 40.613281 42.59375 40.65625 C 42.59375 42.921875 44.359375 44.773438 46.542969 44.773438 C 48.730469 44.773438 50.496094 42.921875 50.496094 40.65625 C 50.496094 40.613281 50.496094 40.570312 50.496094 40.527344 L 52.21875 40.527344 C 54.234375 40.527344 55.914062 38.804688 55.914062 36.703125 Z M 29.734375 43.09375 C 28.472656 43.09375 27.464844 42 27.464844 40.65625 C 27.464844 39.308594 28.472656 38.21875 29.734375 38.21875 C 30.996094 38.21875 32.003906 39.308594 32.003906 40.65625 C 32.003906 42 30.996094 43.09375 29.734375 43.09375 Z M 46.542969 43.09375 C 45.285156 43.09375 44.273438 42 44.273438 40.65625 C 44.273438 39.308594 45.285156 38.21875 46.542969 38.21875 C 47.804688 38.21875 48.8125 39.308594 48.8125 40.65625 C 48.8125 42 47.804688 43.09375 46.542969 43.09375 Z M 46.542969 36.535156 C 44.988281 36.535156 43.601562 37.503906 42.972656 38.847656 L 40.367188 38.847656 L 40.367188 35.570312 C 40.367188 35.105469 39.988281 34.730469 39.527344 34.730469 C 39.0625 34.730469 38.6875 35.105469 38.6875 35.570312 L 38.6875 38.847656 L 33.308594 38.847656 C 32.675781 37.460938 31.289062 36.535156 29.734375 36.535156 C 28.179688 36.535156 26.792969 37.503906 26.164062 38.847656 L 21.496094 38.847656 C 21.078125 38.847656 20.617188 38.34375 20.617188 37.839844 L 20.617188 34.980469 C 20.617188 34.9375 20.617188 34.9375 20.617188 34.898438 C 20.574219 34.476562 20.65625 34.054688 20.910156 33.804688 C 21.078125 33.636719 21.289062 33.511719 21.496094 33.511719 L 24.902344 33.511719 C 25.363281 33.511719 25.785156 33.34375 26.121094 33.007812 L 31.835938 28.132812 C 32.003906 28.003906 32.128906 27.835938 32.296875 27.710938 L 32.382812 27.625 C 33.308594 26.746094 34.484375 26.28125 35.785156 26.28125 L 44.191406 26.28125 C 46 26.28125 47.636719 27.289062 48.476562 28.886719 C 48.476562 28.886719 48.519531 28.929688 48.519531 28.929688 L 51.964844 34.351562 C 52.132812 34.601562 52.386719 34.730469 52.679688 34.730469 L 53.941406 34.730469 C 54.109375 34.730469 54.234375 34.855469 54.234375 35.023438 L 54.234375 35.359375 L 53.644531 35.359375 C 53.183594 35.359375 52.804688 35.738281 52.804688 36.199219 C 52.804688 36.664062 53.183594 37.039062 53.644531 37.039062 L 54.191406 37.039062 C 54.023438 38.050781 53.183594 38.890625 52.21875 38.890625 L 50.117188 38.890625 C 49.484375 37.503906 48.097656 36.535156 46.542969 36.535156 Z M 46.542969 36.535156 " fill-opacity="1" fill-rule="nonzero"/></g><g clip-path="url(#077f835c26)"><path fill="#ec3237" d="M 4.6875 28.761719 L 8.976562 28.761719 C 8.976562 28.804688 8.976562 28.84375 8.976562 28.886719 C 8.976562 31.15625 10.738281 33.007812 12.925781 33.007812 C 15.109375 33.007812 16.875 31.15625 16.875 28.886719 C 16.875 28.84375 16.875 28.804688 16.875 28.761719 L 25.742188 28.761719 C 25.742188 28.804688 25.742188 28.84375 25.742188 28.886719 C 25.742188 28.886719 25.742188 28.929688 25.742188 28.929688 L 25.910156 28.761719 L 27.886719 27.082031 L 29.652344 25.566406 C 29.734375 25.484375 29.859375 25.398438 29.945312 25.273438 L 30.027344 25.191406 C 30.15625 25.0625 30.324219 24.9375 30.492188 24.8125 C 30.238281 24.769531 29.988281 24.726562 29.734375 24.726562 C 28.179688 24.726562 26.792969 25.695312 26.164062 27.039062 L 23.558594 27.039062 L 23.558594 23.761719 C 23.558594 23.296875 23.179688 22.921875 22.714844 22.921875 C 22.253906 22.921875 21.875 23.296875 21.875 23.761719 L 21.875 27.039062 L 16.496094 27.039062 C 15.867188 25.652344 14.480469 24.726562 12.925781 24.726562 C 11.371094 24.726562 9.984375 25.695312 9.351562 27.039062 L 4.6875 27.039062 C 4.269531 27.039062 3.804688 26.535156 3.804688 26.03125 L 3.804688 23.171875 C 3.804688 23.128906 3.804688 23.128906 3.804688 23.089844 C 3.765625 22.667969 3.847656 22.246094 4.101562 21.996094 C 4.269531 21.828125 4.476562 21.703125 4.6875 21.703125 L 8.09375 21.703125 C 8.554688 21.703125 8.976562 21.535156 9.3125 21.195312 L 15.027344 16.324219 C 15.195312 16.195312 15.320312 16.027344 15.488281 15.902344 L 15.574219 15.816406 C 16.496094 14.9375 17.671875 14.472656 18.976562 14.472656 L 27.382812 14.472656 C 29.1875 14.472656 30.828125 15.480469 31.667969 17.078125 C 31.667969 17.078125 31.710938 17.121094 31.710938 17.121094 L 35.15625 22.542969 C 35.28125 22.710938 35.449219 22.835938 35.660156 22.921875 C 35.703125 22.921875 35.746094 22.921875 35.785156 22.921875 L 39.105469 22.921875 C 38.9375 21.996094 38.140625 21.28125 37.171875 21.28125 L 36.332031 21.28125 L 33.140625 16.28125 C 31.960938 14.136719 29.777344 12.835938 27.339844 12.835938 L 18.933594 12.835938 C 17.210938 12.835938 15.613281 13.507812 14.394531 14.683594 L 14.3125 14.765625 C 14.1875 14.894531 14.058594 15.019531 13.933594 15.105469 L 8.175781 20.019531 C 8.132812 20.0625 8.132812 20.0625 8.09375 20.105469 L 4.6875 20.105469 C 4.015625 20.105469 3.34375 20.398438 2.882812 20.945312 C 2.335938 21.535156 2.082031 22.375 2.167969 23.257812 L 2.167969 26.070312 C 2.125 27.5 3.34375 28.761719 4.6875 28.761719 Z M 12.925781 26.449219 C 14.1875 26.449219 15.195312 27.542969 15.195312 28.886719 C 15.195312 30.234375 14.1875 31.324219 12.925781 31.324219 C 11.664062 31.324219 10.65625 30.234375 10.65625 28.886719 C 10.65625 27.542969 11.664062 26.449219 12.925781 26.449219 Z M 12.925781 26.449219 " fill-opacity="1" fill-rule="nonzero"/></g><g clip-path="url(#e9df0110a6)"><path fill="#ec3237" d="M 55.914062 10.648438 C 55.914062 9.554688 55.035156 8.675781 53.941406 8.675781 L 53.101562 8.675781 L 49.90625 3.671875 C 48.773438 1.53125 46.542969 0.226562 44.148438 0.226562 L 35.746094 0.226562 C 34.019531 0.226562 32.425781 0.898438 31.207031 2.078125 L 31.121094 2.160156 C 30.996094 2.285156 30.871094 2.414062 30.742188 2.496094 L 24.984375 7.414062 C 24.945312 7.457031 24.945312 7.457031 24.902344 7.496094 L 21.496094 7.496094 C 20.824219 7.496094 20.152344 7.792969 19.691406 8.335938 C 19.144531 8.925781 18.890625 9.765625 18.976562 10.648438 L 18.976562 11.152344 L 20.65625 11.152344 L 20.65625 10.605469 C 20.65625 10.566406 20.65625 10.566406 20.65625 10.523438 C 20.617188 10.101562 20.699219 9.683594 20.953125 9.429688 C 21.121094 9.261719 21.328125 9.136719 21.539062 9.136719 L 24.945312 9.136719 C 25.40625 9.136719 25.828125 8.96875 26.164062 8.632812 L 31.878906 3.757812 C 32.046875 3.632812 32.171875 3.464844 32.339844 3.335938 L 32.425781 3.253906 C 33.347656 2.371094 34.527344 1.90625 35.828125 1.90625 L 44.234375 1.90625 C 46.039062 1.90625 47.679688 2.917969 48.519531 4.515625 C 48.519531 4.515625 48.5625 4.554688 48.5625 4.554688 L 52.007812 9.976562 C 52.175781 10.230469 52.425781 10.355469 52.722656 10.355469 L 53.984375 10.355469 C 54.152344 10.355469 54.277344 10.480469 54.277344 10.648438 L 54.277344 10.984375 L 53.6875 10.984375 C 53.226562 10.984375 52.847656 11.363281 52.847656 11.824219 C 52.847656 12.289062 53.226562 12.667969 53.6875 12.667969 L 54.234375 12.667969 C 54.066406 13.675781 53.226562 14.515625 52.257812 14.515625 L 50.160156 14.515625 C 49.527344 13.128906 48.140625 12.203125 46.585938 12.203125 C 45.03125 12.203125 43.644531 13.171875 43.015625 14.515625 L 40.367188 14.515625 L 40.367188 11.238281 C 40.367188 10.773438 39.988281 10.398438 39.527344 10.398438 C 39.0625 10.398438 38.6875 10.773438 38.6875 11.238281 L 38.6875 14.515625 L 33.980469 14.515625 C 34.1875 14.808594 34.398438 15.144531 34.566406 15.480469 L 35.03125 16.195312 L 42.550781 16.195312 C 42.550781 16.238281 42.550781 16.28125 42.550781 16.324219 C 42.550781 18.589844 44.316406 20.441406 46.503906 20.441406 C 48.6875 20.441406 50.453125 18.589844 50.453125 16.324219 C 50.453125 16.28125 50.453125 16.238281 50.453125 16.195312 L 52.175781 16.195312 C 54.191406 16.195312 55.875 14.429688 55.875 12.371094 L 55.875 10.648438 Z M 46.542969 18.71875 C 45.285156 18.71875 44.273438 17.625 44.273438 16.28125 C 44.273438 14.9375 45.285156 13.84375 46.542969 13.84375 C 47.804688 13.84375 48.8125 14.9375 48.8125 16.28125 C 48.8125 17.625 47.804688 18.71875 46.542969 18.71875 Z M 46.542969 18.71875 " fill-opacity="1" fill-rule="nonzero"/></g></svg>