<svg xmlns="http://www.w3.org/2000/svg" xmlns:xlink="http://www.w3.org/1999/xlink" width="64" zoomAndPan="magnify" viewBox="0 0 48 48" height="64" preserveAspectRatio="xMidYMid meet" version="1.0"><defs>
<g/><clipPath id="7c4cc22cd7">
<path d="M 0.488281 0 L 47.507812 0 L 47.507812 47.019531 L 0.488281 47.019531 Z M 0.488281 0" clip-rule="nonzero"/></clipPath><clipPath id="094ddfb14d"><path d="M 8.570312 0 L 39.429688 0 C 41.570312 0 43.628906 0.851562 45.144531 2.367188 C 46.660156 3.882812 47.511719 5.9375 47.511719 8.082031 L 47.511719 38.9375 C 47.511719 41.082031 46.660156 43.136719 45.144531 44.652344 C 43.628906 46.167969 41.570312 47.019531 39.429688 47.019531 L 8.570312 47.019531 C 6.429688 47.019531 4.371094 46.167969 2.855469 44.652344 C 1.339844 43.136719 0.488281 41.082031 0.488281 38.9375 L 0.488281 8.082031 C 0.488281 5.9375 1.339844 3.882812 2.855469 2.367188 C 4.371094 0.851562 6.429688 0 8.570312 0 Z M 8.570312 0 " clip-rule="nonzero"/></clipPath></defs><g clip-path="url(#7c4cc22cd7)"><g clip-path="url(#094ddfb14d)"><path fill="#bdbdbd" d="M 0.488281 0 L 47.511719 0 L 47.511719 47.019531 L 0.488281 47.019531 Z M 0.488281 0 " fill-opacity="1" fill-rule="nonzero"/></g></g><g fill="#969696" fill-opacity="1"><g transform="translate(4.527917, 41.133889)"><g><path d="M 4.734375 -15.734375 L 4.734375 0 L 1.140625 0 L 1.140625 -15.734375 Z M 4.734375 -15.734375 "/></g></g></g><g fill="#969696" fill-opacity="1"><g transform="translate(10.400267, 41.133889)"><g><path d="M 1.71875 -9.78125 L 1.71875 -13.421875 L 5.09375 -13.421875 L 5.09375 -9.78125 L 7.15625 -9.78125 L 7.15625 -7.203125 L 5.09375 -7.203125 L 5.09375 -4.09375 C 5.09375 -3.195312 5.347656 -2.75 5.859375 -2.75 C 5.984375 -2.75 6.113281 -2.769531 6.25 -2.8125 C 6.394531 -2.863281 6.503906 -2.914062 6.578125 -2.96875 L 6.6875 -3.046875 L 7.53125 -0.328125 C 6.800781 0.078125 5.972656 0.28125 5.046875 0.28125 C 4.410156 0.28125 3.863281 0.171875 3.40625 -0.046875 C 2.945312 -0.265625 2.597656 -0.5625 2.359375 -0.9375 C 2.128906 -1.3125 1.960938 -1.707031 1.859375 -2.125 C 1.765625 -2.539062 1.71875 -2.984375 1.71875 -3.453125 L 1.71875 -7.203125 L 0.3125 -7.203125 L 0.3125 -9.78125 Z M 1.71875 -9.78125 "/></g></g></g><g fill="#969696" fill-opacity="1"><g transform="translate(17.931371, 41.133889)"><g><path d="M 1.8125 -1.203125 C 0.894531 -2.203125 0.4375 -3.425781 0.4375 -4.875 C 0.4375 -6.320312 0.894531 -7.546875 1.8125 -8.546875 C 2.726562 -9.554688 3.890625 -10.0625 5.296875 -10.0625 C 6.597656 -10.0625 7.664062 -9.65625 8.5 -8.84375 L 8.5 -9.78125 L 11.875 -9.78125 L 11.875 0 L 8.546875 0 L 8.546875 -1.109375 L 8.5 -1.109375 C 7.664062 -0.179688 6.597656 0.28125 5.296875 0.28125 C 3.890625 0.28125 2.726562 -0.210938 1.8125 -1.203125 Z M 4.671875 -6.53125 C 4.234375 -6.101562 4.015625 -5.550781 4.015625 -4.875 C 4.015625 -4.207031 4.222656 -3.660156 4.640625 -3.234375 C 5.066406 -2.804688 5.625 -2.59375 6.3125 -2.59375 C 6.96875 -2.59375 7.507812 -2.804688 7.9375 -3.234375 C 8.363281 -3.671875 8.578125 -4.21875 8.578125 -4.875 C 8.578125 -5.550781 8.359375 -6.101562 7.921875 -6.53125 C 7.484375 -6.96875 6.945312 -7.1875 6.3125 -7.1875 C 5.664062 -7.1875 5.117188 -6.96875 4.671875 -6.53125 Z M 4.671875 -6.53125 "/></g></g></g><g fill="#969696" fill-opacity="1"><g transform="translate(30.953508, 41.133889)"><g><path d="M 5.125 -12.65625 L 9 -16.015625 L 10.734375 -13.828125 L 6.203125 -11.1875 Z M 0.953125 -9.78125 L 0.953125 -4.3125 C 0.953125 -2.6875 1.375 -1.515625 2.21875 -0.796875 C 3.0625 -0.078125 4.40625 0.28125 6.25 0.28125 C 8.09375 0.28125 9.4375 -0.078125 10.28125 -0.796875 C 11.125 -1.515625 11.546875 -2.6875 11.546875 -4.3125 L 11.546875 -9.78125 L 8.171875 -9.78125 L 8.171875 -5.125 C 8.171875 -4.15625 8.023438 -3.46875 7.734375 -3.0625 C 7.441406 -2.65625 6.945312 -2.453125 6.25 -2.453125 C 5.550781 -2.453125 5.054688 -2.65625 4.765625 -3.0625 C 4.472656 -3.46875 4.328125 -4.15625 4.328125 -5.125 L 4.328125 -9.78125 Z M 0.953125 -9.78125"/></g></g></g></svg>